<?xml version="1.0" standalone="no"?>
<!DOCTYPE svg PUBLIC "-//W3C//DTD SVG 1.1//EN" "http://www.w3.org/Graphics/SVG/1.1/DTD/svg11.dtd" >
<svg>
<metadata>
Created by FontForge 20120731 at Wed Jun  6 15:38:18 2018
 By www
Copyright 1990-1999 as an unpublished work by Bitstream Inc.  All rights reserved.  Confidential.
</metadata>
<defs>
<font id="Swiss721BT-Bold" horiz-adv-x="500" >
  <font-face 
    font-family="Swiss 721"
    font-weight="700"
    font-stretch="normal"
    units-per-em="1000"
    panose-1="0 0 0 0 0 0 0 0 0 0"
    ascent="800"
    descent="-200"
    x-height="531"
    cap-height="719"
    bbox="-169 -236 1253 963"
    underline-thickness="108"
    underline-position="-52"
    stemh="119"
    stemv="141"
    unicode-range="U+0020-FB02"
  />
<missing-glyph horiz-adv-x="284" 
 />
    <glyph glyph-name=".notdef" horiz-adv-x="284" 
 />
    <glyph glyph-name="space" unicode=" " horiz-adv-x="284" 
 />
    <glyph glyph-name="exclam" unicode="!" horiz-adv-x="330" 
d="M92 0v144h145v-144h-145zM128 200l-38 324v195h150v-195l-38 -324h-74z" />
    <glyph glyph-name="quotedbl" unicode="&#x22;" horiz-adv-x="331" 
d="M39 702h94v-273h-94v273zM198 702h94v-273h-94v273z" />
    <glyph glyph-name="numbersign" unicode="#" horiz-adv-x="769" 
d="M346 715h108l-71 -203h118l72 203h108l-72 -203h138l-36 -98h-137l-41 -118h142l-35 -98h-142l-72 -203h-108l72 203h-119l-73 -203h-107l71 203h-140l37 98h138l42 118h-146l36 98h145zM346 414l-43 -118h123l42 118h-122z" />
    <glyph glyph-name="dollar" unicode="$" horiz-adv-x="567" 
d="M255 -110v94c-147 9 -220 85 -220 229h131c3 -70 33 -111 89 -122v202c-146 37 -209 91 -209 202c0 117 79 198 209 201v63h58v-63c128 -6 200 -79 207 -205h-133c-4 60 -28 93 -74 97v-178c152 -47 219 -102 219 -213c0 -124 -79 -202 -219 -214v-93h-58zM255 425v166
c-51 -7 -78 -36 -78 -83c0 -41 25 -66 78 -83zM313 91c53 7 82 39 82 91c0 47 -26 76 -82 93v-184z" />
    <glyph glyph-name="percent" unicode="%" horiz-adv-x="860" 
d="M32 517c0 102 80 182 182 182c100 0 181 -82 181 -182s-81 -181 -181 -181c-102 0 -182 79 -182 181zM138 517c0 -43 33 -76 76 -76c42 0 76 34 76 76s-34 76 -76 76c-43 0 -76 -33 -76 -76zM181 -20l417 719h79l-417 -719h-79zM465 162c0 102 80 181 182 181
c100 0 181 -81 181 -181s-81 -182 -181 -182c-102 0 -182 80 -182 182zM571 162c0 -43 33 -77 76 -77c42 0 76 35 76 77s-34 76 -76 76c-43 0 -76 -33 -76 -76z" />
    <glyph glyph-name="ampersand" unicode="&#x26;" horiz-adv-x="701" 
d="M199 403l-28 37c-27 36 -41 68 -41 109c0 101 68 170 186 170c112 0 178 -63 178 -157c0 -74 -37 -129 -116 -179l103 -127c20 33 31 73 35 120h127c-7 -85 -35 -157 -84 -217l131 -159h-166l-49 60c-58 -53 -128 -80 -202 -80c-134 0 -226 89 -226 210
c0 94 47 154 152 213zM309 468l17 12c31 21 46 47 46 82c0 33 -22 54 -57 54c-36 0 -58 -21 -58 -55c0 -18 10 -40 29 -64zM270 314l-37 -27c-30 -21 -45 -50 -45 -87c0 -54 41 -98 99 -98c41 0 80 17 113 51z" />
    <glyph glyph-name="quoteright" unicode="&#x2019;" horiz-adv-x="260" 
d="M62 590v129h136v-127c0 -81 -55 -144 -136 -148v50c50 12 73 42 73 90v6h-73z" />
    <glyph glyph-name="parenleft" unicode="(" horiz-adv-x="370" 
d="M361 719c-90 -147 -133 -297 -133 -464s43 -317 133 -464h-103c-116 158 -174 318 -174 464s58 306 174 464h103z" />
    <glyph glyph-name="parenright" unicode=")" horiz-adv-x="370" 
d="M11 719h104c116 -158 173 -318 173 -464s-57 -306 -173 -464h-104c90 147 134 297 134 464s-44 317 -134 464z" />
    <glyph glyph-name="asterisk" unicode="*" 
d="M250 434l-86 -121l-83 58l94 118l-137 38l32 99l131 -47v140h97v-140l131 46l33 -99l-137 -37l93 -117l-85 -61z" />
    <glyph glyph-name="plus" unicode="+" horiz-adv-x="833" 
d="M367 596h99v-249h243v-97h-243v-250h-99v250h-243v97h243v249z" />
    <glyph glyph-name="comma" unicode="," horiz-adv-x="284" 
d="M68 -169v57c55 16 80 48 80 100v12h-80v147h148v-141c0 -97 -50 -157 -148 -175z" />
    <glyph glyph-name="hyphen" unicode="-" horiz-adv-x="334" 
d="M30 199v134h274v-134h-274z" />
    <glyph glyph-name="period" unicode="." horiz-adv-x="284" 
d="M68 0v147h147v-147h-147z" />
    <glyph glyph-name="slash" unicode="/" horiz-adv-x="317" 
d="M4 -93l242 831h67l-243 -831h-66z" />
    <glyph glyph-name="zero" unicode="0" horiz-adv-x="567" 
d="M31 340c0 240 83 359 252 359s253 -120 253 -360s-83 -358 -253 -358c-169 0 -252 119 -252 359zM176 340c0 -164 30 -243 107 -243s108 79 108 243s-31 242 -108 242s-107 -78 -107 -242z" />
    <glyph glyph-name="one" unicode="1" horiz-adv-x="567" 
d="M246 0v478h-167v98h11c118 0 172 32 182 123h112v-699h-138z" />
    <glyph glyph-name="two" unicode="2" horiz-adv-x="567" 
d="M23 0c2 137 59 210 179 291c102 68 176 99 176 191c0 61 -39 100 -104 100c-69 0 -110 -44 -110 -127v-6h-129c0 161 90 250 248 250c146 0 237 -87 237 -215c0 -110 -58 -166 -164 -238c-84 -57 -145 -86 -160 -127h317v-119h-490z" />
    <glyph glyph-name="three" unicode="3" horiz-adv-x="567" 
d="M28 213h134c1 -79 38 -118 111 -118c70 0 110 38 110 107s-45 105 -133 105c-7 0 -14 -1 -21 -1v97h15c81 0 119 31 119 96c0 55 -36 88 -92 88c-61 0 -97 -37 -97 -105v-6h-132c3 143 87 222 235 222c142 0 228 -75 228 -189c0 -61 -28 -108 -84 -138
c72 -31 109 -87 109 -163c0 -139 -97 -228 -257 -228c-157 0 -245 83 -245 230v3z" />
    <glyph glyph-name="four" unicode="4" horiz-adv-x="567" 
d="M318 0v151h-295v123l258 405h173v-417h81v-111h-81v-151h-136zM321 259v299l-190 -299h190z" />
    <glyph glyph-name="five" unicode="5" horiz-adv-x="567" 
d="M25 188h137c5 -61 43 -96 104 -96c75 0 117 45 117 128c0 77 -43 125 -116 125c-40 0 -71 -16 -92 -48l-126 7l45 375h402v-118h-303l-18 -140c29 23 68 36 119 36c140 0 233 -93 233 -230c0 -150 -102 -247 -261 -247c-145 0 -235 79 -241 208z" />
    <glyph glyph-name="six" unicode="6" horiz-adv-x="567" 
d="M178 405c32 32 77 49 133 49c137 0 226 -90 226 -229c0 -147 -98 -246 -245 -246c-170 0 -260 119 -260 345c0 244 98 375 275 375c124 0 205 -69 212 -179h-142c-6 45 -34 68 -86 68c-70 0 -108 -61 -113 -183zM180 222c0 -81 44 -130 112 -130c64 0 103 47 103 129
c0 76 -40 119 -108 119c-67 0 -107 -44 -107 -118z" />
    <glyph glyph-name="seven" unicode="7" horiz-adv-x="567" 
d="M278 0h-146c10 191 92 379 244 560h-344v119h496v-105c-154 -169 -235 -355 -250 -574z" />
    <glyph glyph-name="eight" unicode="8" horiz-adv-x="567" 
d="M135 367c-60 33 -83 74 -83 141c0 118 85 192 231 192c147 0 233 -73 233 -192c0 -65 -28 -112 -84 -141c67 -31 103 -86 103 -169c0 -135 -94 -218 -252 -218c-160 0 -251 82 -251 218c0 81 32 133 103 169zM185 503c0 -53 34 -84 98 -84s99 31 99 84
c0 51 -37 84 -99 84c-61 0 -98 -34 -98 -84zM174 203c0 -69 40 -107 110 -107c68 0 109 40 109 107c0 64 -43 107 -109 107s-110 -44 -110 -107z" />
    <glyph glyph-name="nine" unicode="9" horiz-adv-x="567" 
d="M386 274c-32 -32 -76 -49 -132 -49c-137 0 -227 89 -227 228c0 147 98 246 245 246c170 0 261 -119 261 -345c0 -244 -99 -375 -276 -375c-124 0 -204 69 -211 179h141c6 -45 35 -67 87 -67c70 0 107 61 112 183zM384 456c0 81 -44 130 -112 130
c-64 0 -103 -46 -103 -128c0 -76 40 -120 108 -120c67 0 107 44 107 118z" />
    <glyph glyph-name="colon" unicode=":" horiz-adv-x="307" 
d="M79 0v147h148v-147h-148zM79 374v148h148v-148h-148z" />
    <glyph glyph-name="semicolon" unicode=";" horiz-adv-x="307" 
d="M80 -169v57c55 16 80 48 80 100v12h-81v147h148v-141c0 -97 -49 -157 -147 -175zM80 374v148h147v-148h-147z" />
    <glyph glyph-name="less" unicode="&#x3c;" horiz-adv-x="833" 
d="M704 583v-107l-436 -178l436 -178v-107l-575 237v97z" />
    <glyph glyph-name="equal" unicode="=" horiz-adv-x="833" 
d="M124 452h585v-97h-585v97zM124 242h585v-97h-585v97z" />
    <glyph glyph-name="greater" unicode="&#x3e;" horiz-adv-x="833" 
d="M129 583l575 -236v-97l-575 -237v107l437 178l-437 178v107z" />
    <glyph glyph-name="question" unicode="?" horiz-adv-x="558" 
d="M207 0v143h144v-143h-144zM214 209c0 10 -1 19 -1 28c0 52 9 89 39 125c29 34 66 53 87 77s34 45 34 78c0 62 -36 98 -98 98c-61 0 -99 -42 -102 -118h-138v15c0 137 93 226 241 226c153 0 246 -86 246 -213c0 -44 -9 -80 -31 -111c-31 -44 -76 -69 -112 -102
c-25 -24 -35 -49 -35 -86c0 -5 1 -11 1 -17h-131z" />
    <glyph glyph-name="at" unicode="@" horiz-adv-x="1000" 
d="M594 342c-8 53 -38 81 -85 81c-73 0 -138 -91 -138 -206c0 -60 27 -92 77 -92c52 0 103 42 120 111zM570 133c-36 -55 -82 -80 -145 -80c-104 0 -158 58 -158 166c0 158 105 275 236 275c53 0 91 -22 115 -64l26 48h87l-72 -292c-2 -8 -3 -15 -3 -20c0 -22 15 -34 46 -34
c24 0 53 12 79 37c56 52 85 123 85 206c0 152 -128 268 -324 268c-92 0 -171 -22 -236 -66c-110 -74 -172 -189 -172 -322c0 -200 146 -329 371 -329c106 0 209 33 295 93l40 -57c-100 -75 -212 -113 -333 -113c-127 0 -232 33 -312 94c-101 78 -151 180 -151 311
c0 109 35 209 101 290c96 117 233 179 400 179c113 0 212 -32 281 -85c88 -68 131 -155 131 -265c0 -108 -44 -201 -124 -265c-46 -37 -101 -56 -158 -56c-69 0 -104 27 -105 81z" />
    <glyph glyph-name="A" unicode="A" horiz-adv-x="686" 
d="M256 719h171l259 -719h-155l-49 148h-279l-47 -148h-156zM342 575l-100 -306h200z" />
    <glyph glyph-name="B" unicode="B" horiz-adv-x="704" 
d="M74 0v719h339c149 0 226 -65 226 -182c0 -72 -28 -121 -86 -148c75 -30 111 -86 111 -170c0 -137 -92 -219 -262 -219h-328zM216 441h169c71 0 105 23 105 78c0 56 -35 75 -106 75h-168v-153zM216 130h175c81 0 119 27 119 93c0 70 -38 95 -120 95h-174v-188z" />
    <glyph glyph-name="C" unicode="C" horiz-adv-x="744" 
d="M700 247c-11 -162 -133 -267 -319 -267c-212 0 -337 138 -337 379c0 245 124 379 350 379c185 0 295 -95 305 -257h-146c-12 81 -67 125 -159 125c-130 0 -199 -86 -199 -247c0 -158 71 -245 194 -245c90 0 149 47 166 133h145z" />
    <glyph glyph-name="D" unicode="D" horiz-adv-x="727" 
d="M74 0v719h282c220 0 328 -117 328 -360c0 -134 -42 -235 -117 -295c-70 -56 -148 -64 -251 -64h-242zM219 130h119c137 0 195 67 195 229c0 160 -55 234 -177 234h-137v-463z" />
    <glyph glyph-name="E" unicode="E" horiz-adv-x="653" 
d="M74 0v719h522v-125h-376v-153h344v-123h-344v-185h394v-133h-540z" />
    <glyph glyph-name="F" unicode="F" horiz-adv-x="598" 
d="M74 0v719h502v-125h-356v-163h312v-125h-312v-306h-146z" />
    <glyph glyph-name="G" unicode="G" horiz-adv-x="777" 
d="M592 85c-54 -73 -120 -105 -211 -105c-199 0 -338 150 -338 380c0 231 136 378 342 378c182 0 301 -93 322 -243h-151c-18 75 -75 115 -166 115c-118 0 -193 -91 -193 -249c0 -159 78 -250 201 -250c93 0 161 58 176 155h-163v123h298v-389h-99z" />
    <glyph glyph-name="H" unicode="H" horiz-adv-x="743" 
d="M74 0v719h149v-268h297v268h149v-719h-149v319h-297v-319h-149z" />
    <glyph glyph-name="I" unicode="I" horiz-adv-x="307" 
d="M79 0v719h148v-719h-148z" />
    <glyph glyph-name="J" unicode="J" horiz-adv-x="553" 
d="M24 268h143v-87c0 -50 31 -77 87 -77c67 0 82 34 82 114v501h148v-508c0 -65 -2 -114 -35 -157c-37 -48 -104 -74 -193 -74c-81 0 -144 22 -186 66c-45 47 -46 97 -46 166v56z" />
    <glyph glyph-name="K" unicode="K" horiz-adv-x="703" 
d="M74 0v719h148v-295l281 295h185l-287 -291l313 -428h-181l-234 329l-77 -76v-253h-148z" />
    <glyph glyph-name="L" unicode="L" horiz-adv-x="580" 
d="M74 0v719h148v-586h351v-133h-499z" />
    <glyph glyph-name="M" unicode="M" horiz-adv-x="872" 
d="M74 0v719h219l143 -547l141 547h220v-719h-139v580l-146 -580h-151l-148 580v-580h-139z" />
    <glyph glyph-name="N" unicode="N" horiz-adv-x="741" 
d="M74 0v719h155l292 -494v494h146v-719h-153l-294 494v-494h-146z" />
    <glyph glyph-name="O" unicode="O" horiz-adv-x="789" 
d="M43 359c0 232 136 379 351 379s352 -147 352 -379s-137 -379 -352 -379s-351 147 -351 379zM194 359c0 -160 75 -250 200 -250c126 0 202 90 202 250s-76 250 -202 250c-125 0 -200 -90 -200 -250z" />
    <glyph glyph-name="P" unicode="P" horiz-adv-x="667" 
d="M222 256v-256h-148v719h320c152 0 230 -80 230 -231c0 -148 -78 -232 -220 -232h-182zM222 386h144c76 0 111 30 111 104c0 68 -34 104 -103 104h-152v-208z" />
    <glyph glyph-name="Q" unicode="Q" horiz-adv-x="789" 
d="M585 30c-48 -32 -113 -50 -191 -50c-215 0 -351 147 -351 379s136 379 351 379s352 -147 352 -379c0 -103 -27 -188 -77 -250l78 -75l-80 -84zM481 128l-76 74l81 84l78 -76c19 35 32 84 32 149c0 160 -76 250 -202 250c-125 0 -200 -90 -200 -250s75 -250 200 -250
c32 0 61 6 87 19z" />
    <glyph glyph-name="R" unicode="R" horiz-adv-x="714" 
d="M74 0v719h349c156 0 231 -65 231 -204c0 -88 -38 -148 -107 -170c68 -24 86 -70 89 -157l3 -85c1 -42 1 -67 28 -81v-22h-162c-11 21 -16 51 -17 90l-2 76c-3 85 -25 114 -107 114h-157v-280h-148zM222 405h174c75 0 110 29 110 95c0 62 -34 95 -103 95h-181v-190z" />
    <glyph glyph-name="S" unicode="S" horiz-adv-x="667" 
d="M41 222h146c11 -80 65 -116 164 -116c87 0 130 31 130 91c0 66 -60 79 -192 109c-58 13 -112 23 -159 53c-51 32 -78 88 -78 163c0 139 96 217 277 217c169 0 267 -84 272 -228h-142c-5 70 -54 107 -143 107c-78 0 -121 -32 -121 -87c0 -68 55 -68 174 -98
c68 -17 124 -31 169 -56c59 -33 88 -87 88 -161c0 -148 -103 -236 -289 -236c-183 0 -288 89 -296 242z" />
    <glyph glyph-name="T" unicode="T" horiz-adv-x="594" 
d="M223 0v591h-213v128h573v-128h-212v-591h-148z" />
    <glyph glyph-name="U" unicode="U" horiz-adv-x="717" 
d="M70 721h149v-451c0 -108 40 -160 139 -160c100 0 140 51 140 160v451h148v-467c0 -178 -103 -274 -287 -274c-186 0 -289 96 -289 274v467z" />
    <glyph glyph-name="V" unicode="V" horiz-adv-x="625" 
d="M243 0l-248 719h164l153 -538l156 538h162l-245 -719h-142z" />
    <glyph glyph-name="W" unicode="W" horiz-adv-x="934" 
d="M214 0l-206 719h153l123 -507l104 507h158l104 -507l123 507h152l-206 -719h-141l-111 551l-112 -551h-141z" />
    <glyph glyph-name="X" unicode="X" horiz-adv-x="626" 
d="M-5 0l226 367l-226 352h171l147 -251l146 251h172l-226 -351l226 -368h-171l-147 249l-147 -249h-171z" />
    <glyph glyph-name="Y" unicode="Y" horiz-adv-x="622" 
d="M396 0h-148v268l-261 451h181l154 -310l142 310h169l-237 -451v-268z" />
    <glyph glyph-name="Z" unicode="Z" horiz-adv-x="601" 
d="M18 0v125l391 464h-383v130h563v-125l-392 -464h383v-130h-562z" />
    <glyph glyph-name="bracketleft" unicode="[" horiz-adv-x="382" 
d="M116 719h247v-104h-115v-724h115v-104h-247v932z" />
    <glyph glyph-name="backslash" unicode="\" horiz-adv-x="317" 
d="M246 -93l-242 831h66l243 -831h-67z" />
    <glyph glyph-name="bracketright" unicode="]" horiz-adv-x="382" 
d="M272 719v-932h-247v104h115v724h-115v104h247z" />
    <glyph glyph-name="asciicircum" unicode="^" horiz-adv-x="1000" 
d="M438 713h123l235 -274h-115l-181 181l-182 -181h-115z" />
    <glyph glyph-name="underscore" unicode="_" 
d="M0 -136h500v-100h-500v100z" />
    <glyph glyph-name="quoteleft" unicode="&#x2018;" horiz-adv-x="260" 
d="M198 593v-129h-136v126c0 81 55 144 136 148v-50c-50 -12 -73 -42 -73 -89v-6h73z" />
    <glyph glyph-name="a" unicode="a" horiz-adv-x="562" 
d="M364 261c-54 -25 -100 -28 -127 -36c-45 -13 -67 -30 -67 -71c0 -39 27 -64 70 -64c77 0 124 46 124 121v50zM366 66c-35 -55 -94 -85 -171 -85c-102 0 -161 60 -161 169c0 104 56 150 180 169c110 17 148 9 148 60c0 44 -26 60 -87 60c-58 0 -89 -24 -89 -66v-8h-133v10
c0 108 80 175 217 175c150 0 230 -54 230 -150v-302c0 -39 6 -62 30 -74v-24h-148c-10 19 -15 41 -16 66z" />
    <glyph glyph-name="b" unicode="b" horiz-adv-x="613" 
d="M437 269c0 99 -45 157 -115 157c-75 0 -119 -56 -119 -157c0 -109 41 -165 116 -165c76 0 118 57 118 165zM65 719h138v-254c35 55 89 84 157 84c124 0 218 -111 218 -286c0 -170 -91 -281 -220 -281c-69 0 -117 28 -158 90v-72h-135v719z" />
    <glyph glyph-name="c" unicode="c" horiz-adv-x="551" 
d="M383 200h140c-12 -135 -105 -218 -241 -218c-153 0 -247 105 -247 284c0 178 96 284 252 284c138 0 225 -78 235 -207h-141c-8 56 -41 87 -93 87c-71 0 -105 -56 -105 -166c0 -103 38 -159 105 -159c53 0 85 32 95 95z" />
    <glyph glyph-name="d" unicode="d" horiz-adv-x="615" 
d="M178 269c0 -108 42 -165 118 -165c75 0 116 56 116 165c0 101 -44 157 -119 157c-70 0 -115 -58 -115 -157zM550 719v-719h-135v72c-41 -62 -90 -90 -159 -90c-129 0 -220 111 -220 281c0 175 94 286 218 286c68 0 123 -29 158 -84v254h138z" />
    <glyph glyph-name="e" unicode="e" horiz-adv-x="570" 
d="M182 321h209c-2 72 -39 110 -105 110c-61 0 -98 -38 -104 -110zM389 161h142c-29 -111 -120 -179 -246 -179c-151 0 -250 108 -250 287c0 174 95 281 248 281c162 0 255 -102 255 -285c0 -12 0 -24 -1 -37h-355c4 -83 41 -126 110 -126c48 0 79 18 97 59z" />
    <glyph glyph-name="f" unicode="f" horiz-adv-x="324" 
d="M87 0v431h-76v100h76v49c0 100 50 144 159 144c21 0 43 -1 68 -3v-113h-37c-39 0 -52 -6 -52 -40v-37h89v-100h-88v-431h-139z" />
    <glyph glyph-name="g" unicode="g" horiz-adv-x="610" 
d="M50 -51h155c9 -35 37 -53 85 -53c95 0 119 38 119 132v47c-30 -52 -77 -75 -148 -75c-137 0 -227 106 -227 269c0 175 90 281 225 281c71 0 121 -27 153 -83v64h135v-496c0 -96 -12 -156 -69 -201c-41 -32 -107 -51 -195 -51c-143 0 -227 62 -233 166zM178 274
c0 -100 42 -155 116 -155s115 54 115 157c0 98 -43 152 -117 152c-71 0 -114 -55 -114 -154z" />
    <glyph glyph-name="h" unicode="h" horiz-adv-x="602" 
d="M65 0v719h141v-247c39 49 93 73 158 73c63 0 115 -23 146 -62c28 -36 29 -77 29 -129v-354h-141v278c0 98 -2 149 -83 149c-66 0 -109 -42 -109 -112v-315h-141z" />
    <glyph glyph-name="i" unicode="i" horiz-adv-x="272" 
d="M65 0v531h142v-531h-142zM65 590v129h142v-129h-142z" />
    <glyph glyph-name="j" unicode="j" horiz-adv-x="271" 
d="M3 -217v119h28c24 0 34 11 34 36v593h142v-616c0 -101 -56 -132 -177 -132h-27zM65 590v128h142v-128h-142z" />
    <glyph glyph-name="k" unicode="k" horiz-adv-x="554" 
d="M65 0v719h138v-377l169 189h171l-185 -197l196 -334h-170l-127 226l-54 -58v-168h-138z" />
    <glyph glyph-name="l" unicode="l" horiz-adv-x="275" 
d="M67 0v719h142v-719h-142z" />
    <glyph glyph-name="m" unicode="m" horiz-adv-x="877" 
d="M62 0v531h135v-59c39 49 88 74 147 74c67 0 113 -24 148 -78c37 51 88 78 151 78c106 0 174 -66 174 -175v-371h-140v342c0 52 -30 81 -79 81c-54 0 -90 -38 -90 -101v-322h-139v341c0 53 -29 82 -77 82c-54 0 -90 -38 -90 -102v-321h-140z" />
    <glyph glyph-name="n" unicode="n" horiz-adv-x="597" 
d="M62 0v531h139v-63c40 51 94 77 161 77c117 0 175 -61 175 -183v-362h-142v321c0 72 -21 106 -82 106c-66 0 -109 -42 -109 -112v-315h-142z" />
    <glyph glyph-name="o" unicode="o" horiz-adv-x="608" 
d="M35 266c0 177 102 284 269 284s269 -107 269 -284s-102 -284 -269 -284s-269 107 -269 284zM179 266c0 -106 46 -165 125 -165s124 59 124 165s-45 164 -124 164s-125 -58 -125 -164z" />
    <glyph glyph-name="p" unicode="p" horiz-adv-x="613" 
d="M65 -213v744h135v-72c41 62 89 90 158 90c129 0 220 -111 220 -281c0 -175 -94 -286 -218 -286c-68 0 -122 29 -157 84v-279h-138zM437 262c0 108 -42 165 -118 165c-75 0 -116 -56 -116 -165c0 -101 44 -157 119 -157c70 0 115 58 115 157z" />
    <glyph glyph-name="q" unicode="q" horiz-adv-x="613" 
d="M549 531v-744h-139v282c-39 -59 -88 -87 -155 -87c-129 0 -220 111 -220 281c0 175 94 286 218 286c69 0 123 -29 159 -86v68h137zM176 269c0 -108 42 -165 118 -165c75 0 116 56 116 165c0 101 -44 157 -119 157c-70 0 -115 -58 -115 -157z" />
    <glyph glyph-name="r" unicode="r" horiz-adv-x="384" 
d="M62 0v531h132v-91c37 73 85 106 153 106c7 0 14 0 21 -1v-144h-47c-77 0 -117 -40 -117 -120v-281h-142z" />
    <glyph glyph-name="s" unicode="s" horiz-adv-x="546" 
d="M32 173h142c2 -54 38 -80 111 -80c57 0 87 20 87 53c0 46 -46 43 -140 67c-125 32 -184 70 -184 160c0 107 82 177 218 177c143 0 227 -67 232 -181h-138c-2 45 -35 71 -93 71c-54 0 -80 -16 -80 -49c0 -37 44 -41 145 -65c123 -29 183 -63 183 -159
c0 -120 -86 -185 -249 -185c-148 0 -234 71 -234 185v6z" />
    <glyph glyph-name="t" unicode="t" horiz-adv-x="318" 
d="M298 -4c-39 -1 -66 -3 -81 -3c-117 0 -142 40 -142 151v287h-70v100h70v145h141v-145h82v-100h-82v-294c0 -28 9 -34 47 -34h35v-107z" />
    <glyph glyph-name="u" unicode="u" horiz-adv-x="597" 
d="M535 531v-531h-139v63c-40 -51 -94 -77 -161 -77c-117 0 -175 61 -175 183v362h142v-321c0 -72 21 -105 82 -105c66 0 109 42 109 112v314h142z" />
    <glyph glyph-name="v" unicode="v" horiz-adv-x="530" 
d="M193 0l-191 531h157l109 -381l110 381h150l-190 -531h-145z" />
    <glyph glyph-name="w" unicode="w" horiz-adv-x="765" 
d="M157 0l-150 531h144l87 -368l73 368h145l77 -368l87 368h138l-149 -531h-142l-85 380l-82 -380h-143z" />
    <glyph glyph-name="x" unicode="x" horiz-adv-x="516" 
d="M-4 0l179 271l-171 260h162l94 -160l93 160h157l-167 -258l177 -273h-166l-98 168l-97 -168h-163z" />
    <glyph glyph-name="y" unicode="y" horiz-adv-x="537" 
d="M83 -213v115c13 -2 25 -2 33 -2c56 0 84 26 84 79c0 4 -1 10 -3 15l-191 537h156l112 -383l109 383h149l-218 -626c-31 -90 -69 -122 -171 -122c-15 0 -35 1 -60 4z" />
    <glyph glyph-name="z" unicode="z" horiz-adv-x="506" 
d="M17 0v109l291 309h-274v113h444v-116l-287 -297h297v-118h-471z" />
    <glyph glyph-name="braceleft" unicode="{" 
d="M431 721v-102c-8 0 -16 1 -23 1c-72 0 -84 -25 -84 -98v-117c0 -88 -18 -127 -101 -146c83 -19 101 -57 101 -145v-118c0 -73 12 -97 84 -97c7 0 15 1 23 1v-102c-13 0 -25 -1 -37 -1c-60 0 -104 6 -137 24c-47 27 -51 71 -51 142v123c0 88 -29 123 -109 123
c-6 0 -13 -1 -20 -1v102c7 0 14 -1 20 -1c80 0 109 36 109 124v122c0 71 4 116 51 143c33 18 77 24 137 24c12 0 24 -1 37 -1z" />
    <glyph glyph-name="bar" unicode="|" 
d="M200 764h101v-1000h-101v1000z" />
    <glyph glyph-name="braceright" unicode="}" 
d="M70 721h33c62 0 108 -5 141 -24c46 -26 51 -71 51 -142v-123c0 -88 29 -123 109 -123c6 0 13 1 20 1v-102h-18c-82 0 -111 -33 -111 -122v-123c0 -71 -4 -116 -51 -142c-33 -18 -77 -24 -137 -24c-12 0 -24 1 -37 1v102c8 0 16 -1 23 -1c71 0 84 24 84 97v117
c0 88 17 127 101 146c-83 19 -101 58 -101 146v118c0 73 -13 97 -84 97c-7 0 -15 -1 -23 -1v102z" />
    <glyph glyph-name="asciitilde" unicode="~" horiz-adv-x="833" 
d="M747 392v-108c-65 -44 -124 -67 -185 -67c-30 0 -60 5 -90 15c-69 23 -130 49 -197 49c-59 0 -118 -27 -188 -77v108c70 47 133 70 189 70c58 0 102 -15 144 -29c48 -16 93 -36 144 -36c59 0 116 26 183 75z" />
    <glyph glyph-name="exclamdown" unicode="&#xa1;" horiz-adv-x="330" 
d="M202 519l38 -325v-194h-150v194l38 325h74zM237 719v-144h-145v144h145z" />
    <glyph glyph-name="cent" unicode="&#xa2;" horiz-adv-x="567" 
d="M145 -120l33 119c-97 41 -148 132 -148 266c0 180 97 285 251 285c15 0 32 -1 51 -4l22 81h53l-26 -93c82 -25 129 -91 136 -191h-137c-3 31 -14 54 -36 72l-87 -312c9 -1 17 -2 25 -2c58 0 89 32 100 99h137c-10 -136 -104 -219 -237 -219c-15 0 -33 1 -55 4l-29 -105
h-53zM303 432c-8 1 -16 2 -24 2c-69 0 -106 -57 -106 -170c0 -65 15 -112 43 -140z" />
    <glyph glyph-name="sterling" unicode="&#xa3;" horiz-adv-x="567" 
d="M34 81c72 50 108 92 108 148c0 25 -8 53 -23 83h-86v54h53c-26 52 -41 96 -41 138c0 112 88 194 232 194c151 0 240 -80 248 -223h-135c-5 75 -44 114 -108 114c-62 0 -95 -34 -95 -93c0 -33 22 -72 47 -130h139v-54h-119c5 -23 8 -44 8 -63c0 -52 -33 -96 -95 -152
c41 19 75 29 104 29c49 0 92 -23 132 -23c32 0 63 10 95 32l43 -106c-55 -33 -105 -49 -147 -49c-71 0 -132 39 -192 39c-39 0 -77 -13 -112 -39z" />
    <glyph glyph-name="fraction" unicode="&#x2044;" horiz-adv-x="167" 
d="M-169 -20l425 729h80l-426 -729h-79z" />
    <glyph glyph-name="yen" unicode="&#xa5;" horiz-adv-x="600" 
d="M379 0h-141v253l-10 17h-219v55h187l-36 62h-151v55h119l-136 237h159l157 -308l146 308h149l-125 -237h114v-55h-143l-33 -62h176v-55h-205l-8 -17v-253z" />
    <glyph glyph-name="florin" unicode="&#x192;" horiz-adv-x="567" 
d="M-5 -190l30 112c21 -10 38 -15 51 -15c43 0 57 27 67 90l62 386h-118v96h135l11 61c25 137 73 198 183 198c33 0 67 -7 104 -21l-28 -107c-19 9 -37 14 -53 14c-45 0 -61 -28 -70 -89l-9 -56h125v-96h-137l-47 -294c-17 -110 -33 -183 -56 -220c-35 -56 -79 -82 -145 -82
c-35 0 -69 8 -105 23z" />
    <glyph glyph-name="section" unicode="&#xa7;" 
d="M56 78h121c5 -51 30 -75 76 -75c44 0 70 23 70 57s-24 51 -70 74l-117 59c-74 37 -110 85 -110 145c0 57 28 102 84 131c-32 29 -48 63 -48 106c0 97 72 163 184 163c115 0 183 -62 185 -166h-115c-1 43 -26 67 -72 67c-41 0 -63 -19 -63 -50c0 -28 27 -48 89 -77l82 -38
c83 -39 122 -86 122 -150c0 -59 -30 -104 -86 -128c38 -33 57 -73 57 -122c0 -96 -75 -173 -192 -173c-124 0 -191 61 -197 177zM322 238c26 15 39 33 39 54c0 31 -21 45 -58 64l-129 67c-25 -15 -39 -34 -39 -56c0 -31 27 -47 78 -73z" />
    <glyph glyph-name="currency" unicode="&#xa4;" horiz-adv-x="567" 
d="M56 279h-64l23 51h40c0 13 -1 24 -1 34c0 2 1 11 1 25h-77l23 51h55c17 198 109 298 268 298c138 0 220 -86 234 -247h-138c-2 83 -40 131 -98 131c-70 0 -114 -63 -118 -182h182l-23 -51h-163v-59h137l-23 -51h-110c5 -120 48 -182 116 -182c61 0 96 47 100 139h138
c-14 -169 -95 -256 -237 -256c-156 0 -247 102 -265 299z" />
    <glyph glyph-name="quotesingle" unicode="'" horiz-adv-x="172" 
d="M39 702h94v-273h-94v273z" />
    <glyph glyph-name="quotedblleft" unicode="&#x201c;" horiz-adv-x="440" 
d="M180 593v-129h-136v126c0 81 55 144 136 148v-50c-50 -12 -73 -42 -73 -89v-6h73zM395 593v-129h-136v126c0 81 55 144 136 148v-50c-49 -12 -73 -41 -73 -87v-8h73z" />
    <glyph glyph-name="guillemotleft" unicode="&#xab;" horiz-adv-x="447" 
d="M35 203v125l164 141v-116l-100 -87l100 -87v-117zM246 203v125l163 141v-116l-100 -87l100 -87v-117z" />
    <glyph glyph-name="guilsinglleft" unicode="&#x2039;" horiz-adv-x="237" 
d="M35 203v125l164 141v-116l-100 -87l100 -87v-117z" />
    <glyph glyph-name="guilsinglright" unicode="&#x203a;" horiz-adv-x="237" 
d="M201 328v-125l-163 -141v116l100 88l-100 86v117z" />
    <glyph glyph-name="fi" unicode="&#xfb01;" horiz-adv-x="584" 
d="M87 0v431h-76v100h76v49c0 100 50 144 159 144c21 0 43 -1 68 -3v-113h-37c-39 0 -52 -6 -52 -40v-37h89v-100h-88v-431h-139zM379 0v531h139v-531h-139zM379 590v129h139v-129h-139z" />
    <glyph glyph-name="fl" unicode="&#xfb02;" horiz-adv-x="583" 
d="M87 0v431h-76v100h76v49c0 100 50 144 159 144c21 0 43 -1 68 -3v-113h-37c-39 0 -52 -6 -52 -40v-37h89v-100h-88v-431h-139zM379 0v719h139v-719h-139z" />
    <glyph glyph-name="endash" unicode="&#x2013;" 
d="M0 212v108h500v-108h-500z" />
    <glyph glyph-name="dagger" unicode="&#x2020;" 
d="M192 -106v522h-163v92h163v211h116v-211h163v-92h-163v-522h-116z" />
    <glyph glyph-name="daggerdbl" unicode="&#x2021;" 
d="M192 -106v184h-163v93h163v269h-163v93h163v186h116v-186h163v-93h-163v-269h163v-93h-163v-184h-116z" />
    <glyph glyph-name="periodcentered" unicode="&#xb7;" horiz-adv-x="284" 
d="M66 343c0 42 34 76 76 76s76 -33 76 -76c0 -42 -33 -76 -76 -76s-76 33 -76 76z" />
    <glyph glyph-name="paragraph" unicode="&#xb6;" 
d="M480 722v-54h-55v-668h-74v668h-78v-668h-74v383c-111 4 -179 73 -179 169c0 100 73 170 191 170h269z" />
    <glyph glyph-name="bullet" unicode="&#x2022;" horiz-adv-x="590" 
d="M150 372c0 80 65 144 145 144c79 0 144 -64 144 -144c0 -79 -65 -145 -145 -145s-144 65 -144 145z" />
    <glyph glyph-name="quotesinglbase" unicode="&#x201a;" horiz-adv-x="260" 
d="M62 0v129h136v-126c0 -81 -55 -144 -136 -148v50c49 13 73 42 73 89v6h-73z" />
    <glyph glyph-name="quotedblbase" unicode="&#x201e;" horiz-adv-x="440" 
d="M44 0v129h136v-126c0 -81 -55 -144 -136 -148v50c49 13 73 42 73 89v6h-73zM259 0v129h136v-126c0 -81 -55 -144 -136 -148v50c50 12 73 42 73 89v6h-73z" />
    <glyph glyph-name="quotedblright" unicode="&#x201d;" horiz-adv-x="440" 
d="M44 590v129h136v-127c0 -81 -55 -144 -136 -148v50c50 12 73 42 73 90v6h-73zM259 590v129h136v-127c0 -81 -55 -144 -136 -148v50c49 12 73 42 73 88v8h-73z" />
    <glyph glyph-name="guillemotright" unicode="&#xbb;" horiz-adv-x="447" 
d="M199 328v-125l-164 -141v116l100 88l-100 86v117zM409 328v-125l-163 -141v116l100 88l-100 86v117z" />
    <glyph glyph-name="ellipsis" unicode="&#x2026;" horiz-adv-x="1000" 
d="M93 0v147h147v-147h-147zM426 0v147h147v-147h-147zM760 0v147h147v-147h-147z" />
    <glyph glyph-name="perthousand" unicode="&#x2030;" horiz-adv-x="1285" 
d="M32 517c0 102 80 182 182 182c100 0 181 -82 181 -182s-81 -181 -181 -181c-102 0 -182 79 -182 181zM138 517c0 -43 33 -76 76 -76c42 0 76 34 76 76s-34 76 -76 76c-43 0 -76 -33 -76 -76zM181 -20l417 719h79l-417 -719h-79zM465 162c0 102 80 181 182 181
c100 0 181 -81 181 -181s-81 -182 -181 -182c-102 0 -182 80 -182 182zM571 162c0 -43 33 -77 76 -77c42 0 76 35 76 77s-34 76 -76 76c-43 0 -76 -33 -76 -76zM890 162c0 102 80 181 182 181c100 0 181 -81 181 -181s-81 -182 -181 -182c-102 0 -182 80 -182 182zM996 162
c0 -43 33 -77 76 -77c42 0 76 35 76 77s-34 76 -76 76c-43 0 -76 -33 -76 -76z" />
    <glyph glyph-name="questiondown" unicode="&#xbf;" horiz-adv-x="558" 
d="M344 510c0 -10 1 -19 1 -28c0 -52 -9 -89 -39 -125c-29 -34 -66 -53 -87 -77s-34 -46 -34 -79c0 -62 35 -98 97 -98c61 0 99 42 102 118h139v-15c0 -137 -93 -226 -241 -226c-153 0 -246 87 -246 214c0 44 8 80 30 111c31 44 77 68 113 101c25 24 35 49 35 87
c0 5 -1 11 -1 17h131zM351 719v-144h-145v144h145z" />
    <glyph glyph-name="grave" unicode="`" 
d="M107 775h126l96 -181h-69z" />
    <glyph glyph-name="acute" unicode="&#xb4;" 
d="M393 775l-153 -181h-69l96 181h126z" />
    <glyph glyph-name="circumflex" unicode="&#x2c6;" 
d="M96 594l96 181h116l96 -181h-69l-85 106l-86 -106h-68z" />
    <glyph glyph-name="tilde" unicode="&#x2dc;" 
d="M405 751c-17 -80 -49 -119 -102 -119c-11 0 -23 1 -36 5l-43 13c-11 3 -22 5 -32 5c-22 0 -35 -11 -43 -38h-54c16 78 47 115 100 115c12 0 26 -2 42 -7l45 -12c9 -3 18 -4 27 -4c21 0 35 14 42 42h54z" />
    <glyph glyph-name="macron" unicode="&#xaf;" 
d="M110 645v76h280v-76h-280z" />
    <glyph glyph-name="breve" unicode="&#x2d8;" 
d="M99 758h60c4 -51 33 -72 91 -72s86 21 90 72h60c-7 -102 -54 -148 -150 -148s-144 47 -151 148z" />
    <glyph glyph-name="dotaccent" unicode="&#x2d9;" 
d="M193 620v126h115v-126h-115z" />
    <glyph glyph-name="dieresis" unicode="&#xa8;" 
d="M110 623v120h110v-120h-110zM280 623v120h110v-120h-110z" />
    <glyph glyph-name="ring" unicode="&#x2da;" 
d="M121 704c0 72 56 130 129 130s131 -58 131 -130c0 -73 -58 -130 -131 -130s-129 57 -129 130zM191 704c0 -34 25 -60 59 -60s61 27 61 60s-28 60 -61 60c-34 0 -59 -26 -59 -60z" />
    <glyph glyph-name="cedilla" unicode="&#xb8;" 
d="M138 -214v63c57 -15 98 -21 125 -21c34 0 49 11 49 36s-18 34 -59 34c-9 0 -18 0 -28 -1v103h50v-44h7c76 0 115 -31 115 -93c0 -65 -42 -98 -129 -98c-30 0 -74 6 -130 21z" />
    <glyph glyph-name="hungarumlaut" unicode="&#x2dd;" 
d="M144 594l56 181h108l-113 -181h-51zM275 594l75 181h112l-132 -181h-55z" />
    <glyph glyph-name="ogonek" unicode="&#x2db;" 
d="M306 0c-42 -34 -62 -68 -62 -100c0 -26 13 -39 40 -39h50v-85h-52c-77 0 -116 31 -116 90c0 49 31 89 93 134h47z" />
    <glyph glyph-name="caron" unicode="&#x2c7;" 
d="M96 775h68l86 -107l85 107h69l-96 -181h-116z" />
    <glyph glyph-name="emdash" unicode="&#x2014;" horiz-adv-x="1000" 
d="M0 320h1000v-108h-1000v108z" />
    <glyph glyph-name="AE" unicode="&#xc6;" horiz-adv-x="1002" 
d="M-7 0l284 719h667v-125h-353v-153h321v-123h-321v-185h371v-133h-514v148h-244l-54 -148h-157zM246 264h202v333h-81z" />
    <glyph glyph-name="ordfeminine" unicode="&#xaa;" horiz-adv-x="422" 
d="M380 630v-211c0 -27 5 -42 23 -50v-22h-119c-8 13 -12 26 -13 39c-23 -33 -67 -52 -124 -52c-80 0 -126 43 -126 121c0 71 42 109 130 121s116 6 116 39c0 29 -17 38 -60 38c-41 0 -62 -15 -62 -43v-8h-110v9c0 79 62 127 168 127c116 0 177 -39 177 -108zM269 527
c-85 -29 -136 -18 -136 -69c0 -26 17 -41 48 -41c55 0 88 31 88 81v29zM49 268h326v-61h-326v61z" />
    <glyph glyph-name="Lslash" unicode="&#x141;" horiz-adv-x="584" 
d="M79 0v267l-56 -39l-54 78l110 76v337h148v-249l164 115l55 -77l-219 -153v-222h351v-133h-499z" />
    <glyph glyph-name="Oslash" unicode="&#xd8;" horiz-adv-x="789" 
d="M27 11l89 100c-49 67 -73 149 -73 248c0 232 136 379 351 379c90 0 162 -22 225 -72l72 81l48 -43l-76 -82c56 -69 83 -156 83 -263c0 -233 -137 -379 -352 -379c-97 0 -174 27 -236 83l-84 -95zM219 219l309 340c-33 32 -76 50 -134 50c-125 0 -200 -90 -200 -250
c0 -55 7 -101 25 -140zM250 170c36 -39 82 -61 144 -61c126 0 202 90 202 250c0 65 -12 118 -34 156z" />
    <glyph glyph-name="OE" unicode="&#x152;" horiz-adv-x="1128" 
d="M552 169v380c-47 45 -96 66 -158 66c-133 0 -200 -87 -200 -256c0 -168 68 -255 200 -255c61 0 111 20 158 65zM552 0v50c-57 -47 -119 -70 -192 -70c-186 0 -317 148 -317 379c0 232 131 380 318 380c71 0 133 -22 191 -70v50h519v-125h-376v-153h344v-123h-344v-185
h394v-133h-537z" />
    <glyph glyph-name="ordmasculine" unicode="&#xba;" horiz-adv-x="456" 
d="M228 738c129 0 207 -77 207 -202c0 -126 -78 -202 -207 -202s-206 76 -206 202c0 125 77 202 206 202zM228 647c-56 0 -88 -39 -88 -111s31 -111 88 -111c56 0 89 39 89 111s-34 111 -89 111zM52 268h353v-61h-353v61z" />
    <glyph glyph-name="ae" unicode="&#xe6;" horiz-adv-x="884" 
d="M415 75c-45 -64 -115 -93 -215 -93c-108 0 -166 60 -166 168c0 96 54 150 163 166c126 18 161 12 161 62c0 46 -21 59 -88 59c-53 0 -83 -23 -83 -68v-4h-134v11c0 108 82 174 223 174c73 0 133 -21 170 -57c38 37 86 57 157 57c155 0 248 -101 248 -285
c0 -12 0 -24 -1 -37h-361c1 -84 43 -131 114 -131c46 0 79 22 100 65h142c-26 -112 -119 -180 -252 -180c-81 0 -142 32 -178 93zM361 259c-64 -29 -119 -28 -152 -44c-24 -11 -37 -33 -37 -63c0 -40 27 -63 76 -63c65 0 113 49 113 102v68zM489 322h215v3
c0 70 -41 112 -109 112c-62 0 -104 -44 -106 -115z" />
    <glyph glyph-name="dotlessi" unicode="&#x131;" horiz-adv-x="272" 
d="M65 0v531h142v-531h-142z" />
    <glyph glyph-name="lslash" unicode="&#x142;" horiz-adv-x="281" 
d="M70 0v273l-51 -38l-50 66l101 76v342h142v-257l50 38l51 -66l-101 -75v-359h-142z" />
    <glyph glyph-name="oslash" unicode="&#xf8;" horiz-adv-x="608" 
d="M19 5l71 74c-39 53 -56 113 -56 187c0 176 105 285 273 285c69 0 126 -20 176 -60l66 71l38 -36l-69 -73c39 -50 55 -112 55 -189c0 -175 -105 -283 -270 -283c-73 0 -130 18 -178 59l-68 -72zM395 396c-25 26 -53 38 -86 38c-88 0 -134 -58 -134 -172
c0 -30 5 -57 14 -83zM212 137c24 -28 52 -40 90 -40c84 0 130 59 130 171c0 30 -4 58 -13 85z" />
    <glyph glyph-name="oe" unicode="&#x153;" horiz-adv-x="951" 
d="M486 60c-44 -53 -105 -78 -187 -78c-165 0 -263 104 -263 288c0 176 101 280 265 280c86 0 149 -26 191 -79c40 55 98 79 181 79c152 0 243 -102 243 -285c0 -12 0 -24 -1 -37h-360c0 -83 42 -131 108 -131c51 0 86 21 105 61h141c-20 -105 -119 -176 -249 -176
c-75 0 -129 24 -174 78zM177 270c0 -110 48 -173 123 -173c83 0 131 61 131 174c0 105 -48 166 -126 166c-82 0 -128 -60 -128 -167zM555 322h217c-2 75 -42 115 -110 115c-61 0 -106 -44 -107 -115z" />
    <glyph glyph-name="germandbls" unicode="&#xdf;" horiz-adv-x="600" 
d="M62 0v543c0 104 86 181 231 181s228 -71 228 -183c0 -70 -23 -114 -73 -138c77 -31 116 -90 116 -177c0 -148 -94 -244 -228 -244c-19 0 -42 2 -69 6v114c12 -2 22 -2 33 -2c77 0 120 45 120 123c0 76 -46 117 -133 117h-13v100c6 -1 11 -1 17 -1c58 0 89 30 89 85
s-32 85 -93 85c-56 0 -86 -33 -86 -95v-514h-139z" />
    <glyph glyph-name="Aacute" unicode="&#xc1;" horiz-adv-x="686" 
d="M256 719h171l259 -719h-155l-49 148h-279l-47 -148h-156zM342 575l-100 -306h200zM486 963l-153 -181h-69l96 181h126z" />
    <glyph glyph-name="Acircumflex" unicode="&#xc2;" horiz-adv-x="686" 
d="M256 719h171l259 -719h-155l-49 148h-279l-47 -148h-156zM342 575l-100 -306h200zM189 782l96 181h116l96 -181h-69l-85 106l-86 -106h-68z" />
    <glyph glyph-name="Adieresis" unicode="&#xc4;" horiz-adv-x="686" 
d="M256 719h171l259 -719h-155l-49 148h-279l-47 -148h-156zM342 575l-100 -306h200zM203 811v120h110v-120h-110zM373 811v120h110v-120h-110z" />
    <glyph glyph-name="Agrave" unicode="&#xc0;" horiz-adv-x="686" 
d="M256 719h171l259 -719h-155l-49 148h-279l-47 -148h-156zM342 575l-100 -306h200zM200 963h126l96 -181h-69z" />
    <glyph glyph-name="Aring" unicode="&#xc5;" horiz-adv-x="686" 
d="M342 575l-100 -306h200zM248 690h188l250 -690h-155l-49 148h-279l-47 -148h-156zM342 963c70 0 126 -55 126 -125s-56 -125 -126 -125s-124 55 -124 125s54 125 124 125zM342 896c-32 0 -57 -27 -57 -59s25 -57 57 -57s59 25 59 57s-27 59 -59 59z" />
    <glyph glyph-name="Atilde" unicode="&#xc3;" horiz-adv-x="686" 
d="M256 719h171l259 -719h-155l-49 148h-279l-47 -148h-156zM342 575l-100 -306h200zM498 939c-17 -80 -49 -119 -102 -119c-11 0 -23 1 -36 5l-43 13c-11 3 -22 5 -32 5c-22 0 -35 -11 -43 -38h-54c16 78 47 115 100 115c12 0 26 -2 42 -7l45 -12c9 -3 18 -4 27 -4
c21 0 35 14 42 42h54z" />
    <glyph glyph-name="Ccedilla" unicode="&#xc7;" horiz-adv-x="744" 
d="M700 247c-9 -155 -117 -257 -294 -266v-25h7c76 0 115 -31 115 -93c0 -63 -43 -98 -124 -98c-35 0 -81 6 -136 21v63c57 -15 100 -21 126 -21c34 0 49 11 49 36c0 24 -16 33 -56 33h-31v84c-194 10 -312 148 -312 378c0 244 124 379 350 379c185 0 296 -96 305 -257h-146
c-12 80 -67 125 -159 125c-130 0 -199 -86 -199 -247c0 -156 72 -245 189 -245c96 0 153 45 171 133h145z" />
    <glyph glyph-name="Eacute" unicode="&#xc9;" horiz-adv-x="653" 
d="M74 0v719h522v-125h-376v-153h344v-123h-344v-185h394v-133h-540zM479 963l-153 -181h-69l96 181h126z" />
    <glyph glyph-name="Ecircumflex" unicode="&#xca;" horiz-adv-x="653" 
d="M74 0v719h522v-125h-376v-153h344v-123h-344v-185h394v-133h-540zM182 782l96 181h116l96 -181h-69l-85 106l-86 -106h-68z" />
    <glyph glyph-name="Edieresis" unicode="&#xcb;" horiz-adv-x="653" 
d="M74 0v719h522v-125h-376v-153h344v-123h-344v-185h394v-133h-540zM196 811v120h110v-120h-110zM366 811v120h110v-120h-110z" />
    <glyph glyph-name="Egrave" unicode="&#xc8;" horiz-adv-x="653" 
d="M74 0v719h522v-125h-376v-153h344v-123h-344v-185h394v-133h-540zM193 963h126l96 -181h-69z" />
    <glyph glyph-name="Eth" unicode="&#xd0;" horiz-adv-x="731" 
d="M77 0v340h-78v93h78v286h283c220 0 327 -117 327 -360c0 -134 -41 -235 -116 -295c-70 -56 -149 -64 -252 -64h-242zM222 130h119c137 0 196 67 196 229c0 160 -56 234 -178 234h-137v-160h158v-93h-158v-210z" />
    <glyph glyph-name="Euro" unicode="&#x20ac;" horiz-adv-x="567" 
d="M56 279h-64l23 51h40c0 13 -1 24 -1 34c0 2 1 11 1 25h-77l23 51h55c17 198 109 298 268 298c138 0 220 -86 234 -247h-138c-2 83 -40 131 -98 131c-70 0 -114 -63 -118 -182h182l-23 -51h-163v-59h137l-23 -51h-110c5 -120 48 -182 116 -182c61 0 96 47 100 139h138
c-14 -169 -95 -256 -237 -256c-156 0 -247 102 -265 299z" />
    <glyph glyph-name="Iacute" unicode="&#xcd;" horiz-adv-x="307" 
d="M79 0v719h148v-719h-148zM297 963l-153 -181h-69l96 181h126z" />
    <glyph glyph-name="Icircumflex" unicode="&#xce;" horiz-adv-x="307" 
d="M79 0v719h148v-719h-148zM0 782l96 181h116l96 -181h-69l-85 106l-86 -106h-68z" />
    <glyph glyph-name="Idieresis" unicode="&#xcf;" horiz-adv-x="307" 
d="M79 0v719h148v-719h-148zM14 811v120h110v-120h-110zM184 811v120h110v-120h-110z" />
    <glyph glyph-name="Igrave" unicode="&#xcc;" horiz-adv-x="307" 
d="M79 0v719h148v-719h-148zM11 963h126l96 -181h-69z" />
    <glyph glyph-name="Ntilde" unicode="&#xd1;" horiz-adv-x="741" 
d="M74 0v719h155l292 -494v494h146v-719h-153l-294 494v-494h-146zM530 939c-17 -80 -49 -119 -102 -119c-11 0 -23 1 -36 5l-43 13c-11 3 -22 5 -32 5c-22 0 -35 -11 -43 -38h-54c16 78 47 115 100 115c12 0 26 -2 42 -7l45 -12c9 -3 18 -4 27 -4c21 0 35 14 42 42h54z" />
    <glyph glyph-name="Oacute" unicode="&#xd3;" horiz-adv-x="789" 
d="M43 359c0 232 136 379 351 379s352 -147 352 -379s-137 -379 -352 -379s-351 147 -351 379zM194 359c0 -160 75 -250 200 -250c126 0 202 90 202 250s-76 250 -202 250c-125 0 -200 -90 -200 -250zM538 963l-153 -181h-69l96 181h126z" />
    <glyph glyph-name="Ocircumflex" unicode="&#xd4;" horiz-adv-x="789" 
d="M43 359c0 232 136 379 351 379s352 -147 352 -379s-137 -379 -352 -379s-351 147 -351 379zM194 359c0 -160 75 -250 200 -250c126 0 202 90 202 250s-76 250 -202 250c-125 0 -200 -90 -200 -250zM241 782l96 181h116l96 -181h-69l-85 106l-86 -106h-68z" />
    <glyph glyph-name="Odieresis" unicode="&#xd6;" horiz-adv-x="789" 
d="M43 359c0 232 136 379 351 379s352 -147 352 -379s-137 -379 -352 -379s-351 147 -351 379zM194 359c0 -160 75 -250 200 -250c126 0 202 90 202 250s-76 250 -202 250c-125 0 -200 -90 -200 -250zM255 811v120h110v-120h-110zM425 811v120h110v-120h-110z" />
    <glyph glyph-name="Ograve" unicode="&#xd2;" horiz-adv-x="789" 
d="M43 359c0 232 136 379 351 379s352 -147 352 -379s-137 -379 -352 -379s-351 147 -351 379zM194 359c0 -160 75 -250 200 -250c126 0 202 90 202 250s-76 250 -202 250c-125 0 -200 -90 -200 -250zM252 963h126l96 -181h-69z" />
    <glyph glyph-name="Otilde" unicode="&#xd5;" horiz-adv-x="789" 
d="M43 359c0 232 136 379 351 379s352 -147 352 -379s-137 -379 -352 -379s-351 147 -351 379zM194 359c0 -160 75 -250 200 -250c126 0 202 90 202 250s-76 250 -202 250c-125 0 -200 -90 -200 -250zM550 939c-17 -80 -49 -119 -102 -119c-11 0 -23 1 -36 5l-43 13
c-11 3 -22 5 -32 5c-22 0 -35 -11 -43 -38h-54c16 78 47 115 100 115c12 0 26 -2 42 -7l45 -12c9 -3 18 -4 27 -4c21 0 35 14 42 42h54z" />
    <glyph glyph-name="Scaron" unicode="&#x160;" horiz-adv-x="667" 
d="M41 222h146c11 -80 65 -116 164 -116c87 0 130 31 130 91c0 66 -60 79 -192 109c-58 13 -112 23 -159 53c-51 32 -78 88 -78 163c0 139 96 217 277 217c169 0 267 -84 272 -228h-142c-5 70 -54 107 -143 107c-78 0 -121 -32 -121 -87c0 -68 55 -68 174 -98
c68 -17 124 -31 169 -56c59 -33 88 -87 88 -161c0 -148 -103 -236 -289 -236c-183 0 -288 89 -296 242zM180 963h68l86 -107l85 107h69l-96 -181h-116z" />
    <glyph glyph-name="Thorn" unicode="&#xde;" horiz-adv-x="657" 
d="M220 293h144c76 0 111 28 111 97c0 63 -35 96 -104 96h-151v-193zM220 607h168c149 0 226 -75 226 -217c0 -138 -76 -217 -216 -217h-178v-173h-146v719h146v-112z" />
    <glyph glyph-name="Uacute" unicode="&#xda;" horiz-adv-x="717" 
d="M70 721h149v-451c0 -108 40 -160 139 -160c100 0 140 51 140 160v451h148v-467c0 -178 -103 -274 -287 -274c-186 0 -289 96 -289 274v467zM502 963l-153 -181h-69l96 181h126z" />
    <glyph glyph-name="Ucircumflex" unicode="&#xdb;" horiz-adv-x="717" 
d="M70 721h149v-451c0 -108 40 -160 139 -160c100 0 140 51 140 160v451h148v-467c0 -178 -103 -274 -287 -274c-186 0 -289 96 -289 274v467zM205 782l96 181h116l96 -181h-69l-85 106l-86 -106h-68z" />
    <glyph glyph-name="Udieresis" unicode="&#xdc;" horiz-adv-x="717" 
d="M70 721h149v-451c0 -108 40 -160 139 -160c100 0 140 51 140 160v451h148v-467c0 -178 -103 -274 -287 -274c-186 0 -289 96 -289 274v467zM219 811v120h110v-120h-110zM389 811v120h110v-120h-110z" />
    <glyph glyph-name="Ugrave" unicode="&#xd9;" horiz-adv-x="717" 
d="M70 721h149v-451c0 -108 40 -160 139 -160c100 0 140 51 140 160v451h148v-467c0 -178 -103 -274 -287 -274c-186 0 -289 96 -289 274v467zM216 963h126l96 -181h-69z" />
    <glyph glyph-name="Yacute" unicode="&#xdd;" horiz-adv-x="622" 
d="M396 0h-148v268l-261 451h181l154 -310l142 310h169l-237 -451v-268zM454 963l-153 -181h-69l96 181h126z" />
    <glyph glyph-name="Ydieresis" unicode="&#x178;" horiz-adv-x="622" 
d="M396 0h-148v268l-261 451h181l154 -310l142 310h169l-237 -451v-268zM171 811v120h110v-120h-110zM341 811v120h110v-120h-110z" />
    <glyph glyph-name="Zcaron" unicode="&#x17d;" horiz-adv-x="601" 
d="M18 0v125l391 464h-383v130h563v-125l-392 -464h383v-130h-562zM147 963h68l86 -107l85 107h69l-96 -181h-116z" />
    <glyph glyph-name="aacute" unicode="&#xe1;" horiz-adv-x="562" 
d="M364 261c-54 -25 -100 -28 -127 -36c-45 -13 -67 -30 -67 -71c0 -39 27 -64 70 -64c77 0 124 46 124 121v50zM366 66c-35 -55 -94 -85 -171 -85c-102 0 -161 60 -161 169c0 104 56 150 180 169c110 17 148 9 148 60c0 44 -26 60 -87 60c-58 0 -89 -24 -89 -66v-8h-133v10
c0 108 80 175 217 175c150 0 230 -54 230 -150v-302c0 -39 6 -62 30 -74v-24h-148c-10 19 -15 41 -16 66zM417 775l-153 -181h-69l96 181h126z" />
    <glyph glyph-name="acircumflex" unicode="&#xe2;" horiz-adv-x="562" 
d="M364 261c-54 -25 -100 -28 -127 -36c-45 -13 -67 -30 -67 -71c0 -39 27 -64 70 -64c77 0 124 46 124 121v50zM366 66c-35 -55 -94 -85 -171 -85c-102 0 -161 60 -161 169c0 104 56 150 180 169c110 17 148 9 148 60c0 44 -26 60 -87 60c-58 0 -89 -24 -89 -66v-8h-133v10
c0 108 80 175 217 175c150 0 230 -54 230 -150v-302c0 -39 6 -62 30 -74v-24h-148c-10 19 -15 41 -16 66zM120 594l96 181h116l96 -181h-69l-85 106l-86 -106h-68z" />
    <glyph glyph-name="adieresis" unicode="&#xe4;" horiz-adv-x="562" 
d="M364 261c-54 -25 -100 -28 -127 -36c-45 -13 -67 -30 -67 -71c0 -39 27 -64 70 -64c77 0 124 46 124 121v50zM366 66c-35 -55 -94 -85 -171 -85c-102 0 -161 60 -161 169c0 104 56 150 180 169c110 17 148 9 148 60c0 44 -26 60 -87 60c-58 0 -89 -24 -89 -66v-8h-133v10
c0 108 80 175 217 175c150 0 230 -54 230 -150v-302c0 -39 6 -62 30 -74v-24h-148c-10 19 -15 41 -16 66zM134 623v120h110v-120h-110zM304 623v120h110v-120h-110z" />
    <glyph glyph-name="agrave" unicode="&#xe0;" horiz-adv-x="562" 
d="M364 261c-54 -25 -100 -28 -127 -36c-45 -13 -67 -30 -67 -71c0 -39 27 -64 70 -64c77 0 124 46 124 121v50zM366 66c-35 -55 -94 -85 -171 -85c-102 0 -161 60 -161 169c0 104 56 150 180 169c110 17 148 9 148 60c0 44 -26 60 -87 60c-58 0 -89 -24 -89 -66v-8h-133v10
c0 108 80 175 217 175c150 0 230 -54 230 -150v-302c0 -39 6 -62 30 -74v-24h-148c-10 19 -15 41 -16 66zM131 775h126l96 -181h-69z" />
    <glyph glyph-name="aring" unicode="&#xe5;" horiz-adv-x="562" 
d="M366 66c-35 -55 -94 -85 -171 -85c-102 0 -161 60 -161 169c0 104 56 150 180 169c110 17 148 9 148 60c0 44 -26 60 -87 60c-58 0 -89 -24 -89 -66v-8h-133v10c0 108 80 175 217 175c150 0 230 -54 230 -150v-302c0 -39 6 -62 30 -74v-24h-148c-10 19 -15 41 -16 66z
M152 698c0 70 55 125 125 125s125 -55 125 -125s-55 -125 -125 -125s-125 55 -125 125zM219 697c0 -32 26 -57 58 -57s58 25 58 57s-26 59 -58 59s-58 -27 -58 -59zM364 261c-54 -25 -100 -28 -127 -36c-45 -13 -67 -30 -67 -71c0 -39 27 -64 70 -64c77 0 124 46 124 121v50
z" />
    <glyph glyph-name="atilde" unicode="&#xe3;" horiz-adv-x="562" 
d="M364 261c-54 -25 -100 -28 -127 -36c-45 -13 -67 -30 -67 -71c0 -39 27 -64 70 -64c77 0 124 46 124 121v50zM366 66c-35 -55 -94 -85 -171 -85c-102 0 -161 60 -161 169c0 104 56 150 180 169c110 17 148 9 148 60c0 44 -26 60 -87 60c-58 0 -89 -24 -89 -66v-8h-133v10
c0 108 80 175 217 175c150 0 230 -54 230 -150v-302c0 -39 6 -62 30 -74v-24h-148c-10 19 -15 41 -16 66zM429 751c-17 -80 -49 -119 -102 -119c-11 0 -23 1 -36 5l-43 13c-11 3 -22 5 -32 5c-22 0 -35 -11 -43 -38h-54c16 78 47 115 100 115c12 0 26 -2 42 -7l45 -12
c9 -3 18 -4 27 -4c21 0 35 14 42 42h54z" />
    <glyph glyph-name="brokenbar" unicode="&#xa6;" 
d="M200 699h101v-370h-101v370zM200 199h101v-370h-101v370z" />
    <glyph glyph-name="ccedilla" unicode="&#xe7;" horiz-adv-x="551" 
d="M383 200h140c-13 -134 -93 -210 -228 -214v-30h7c76 0 115 -31 115 -93c0 -63 -43 -98 -124 -98c-35 0 -80 6 -135 21v63c57 -14 98 -22 124 -22c34 0 50 12 50 37c0 24 -16 33 -56 33h-31v88c-133 15 -210 117 -210 280c0 180 96 285 252 285c138 0 225 -79 235 -207
h-141c-8 56 -41 87 -93 87c-70 0 -105 -56 -105 -166c0 -102 38 -159 102 -159c56 0 88 31 98 95z" />
    <glyph glyph-name="copyright" unicode="&#xa9;" horiz-adv-x="833" 
d="M416 722c99 0 189 -37 259 -107c68 -68 105 -159 105 -257c0 -100 -37 -187 -105 -254c-72 -70 -164 -109 -259 -109c-96 0 -185 38 -255 108c-69 69 -107 159 -107 255s37 187 107 258c68 69 156 106 255 106zM417 662c-83 0 -157 -30 -214 -88
c-58 -59 -89 -135 -89 -215c0 -81 31 -156 89 -214s134 -89 214 -89s156 31 216 90c57 56 87 130 87 213c0 82 -31 157 -88 214c-58 58 -132 89 -215 89zM592 438h-92c-5 46 -36 72 -84 72c-57 0 -95 -53 -95 -151c0 -96 35 -147 99 -147c47 0 77 28 83 79h94
c-5 -90 -76 -150 -180 -150c-120 0 -196 81 -196 215c0 136 79 220 197 220c100 0 169 -56 174 -138z" />
    <glyph glyph-name="degree" unicode="&#xb0;" horiz-adv-x="329" 
d="M165 715c82 0 148 -67 148 -149c0 -81 -66 -148 -149 -148c-82 0 -147 65 -147 148s66 149 148 149zM165 652c-47 0 -86 -38 -86 -85c0 -48 38 -86 86 -86s85 40 85 86c0 47 -38 85 -85 85z" />
    <glyph glyph-name="divide" unicode="&#xf7;" horiz-adv-x="833" 
d="M417 564c40 0 74 -33 74 -74c0 -40 -32 -74 -74 -74c-41 0 -74 33 -74 74c0 42 34 74 74 74zM124 347h585v-97h-585v97zM417 180c40 0 74 -33 74 -74c0 -39 -33 -73 -74 -73s-74 32 -74 73c0 42 34 74 74 74z" />
    <glyph glyph-name="eacute" unicode="&#xe9;" horiz-adv-x="570" 
d="M182 321h209c-2 72 -39 110 -105 110c-61 0 -98 -38 -104 -110zM389 161h142c-29 -111 -120 -179 -246 -179c-151 0 -250 108 -250 287c0 174 95 281 248 281c162 0 255 -102 255 -285c0 -12 0 -24 -1 -37h-355c4 -83 41 -126 110 -126c48 0 79 18 97 59zM428 775
l-153 -181h-69l96 181h126z" />
    <glyph glyph-name="ecircumflex" unicode="&#xea;" horiz-adv-x="570" 
d="M182 321h209c-2 72 -39 110 -105 110c-61 0 -98 -38 -104 -110zM389 161h142c-29 -111 -120 -179 -246 -179c-151 0 -250 108 -250 287c0 174 95 281 248 281c162 0 255 -102 255 -285c0 -12 0 -24 -1 -37h-355c4 -83 41 -126 110 -126c48 0 79 18 97 59zM131 594l96 181
h116l96 -181h-69l-85 106l-86 -106h-68z" />
    <glyph glyph-name="edieresis" unicode="&#xeb;" horiz-adv-x="570" 
d="M182 321h209c-2 72 -39 110 -105 110c-61 0 -98 -38 -104 -110zM389 161h142c-29 -111 -120 -179 -246 -179c-151 0 -250 108 -250 287c0 174 95 281 248 281c162 0 255 -102 255 -285c0 -12 0 -24 -1 -37h-355c4 -83 41 -126 110 -126c48 0 79 18 97 59zM145 623v120
h110v-120h-110zM315 623v120h110v-120h-110z" />
    <glyph glyph-name="egrave" unicode="&#xe8;" horiz-adv-x="570" 
d="M182 321h209c-2 72 -39 110 -105 110c-61 0 -98 -38 -104 -110zM389 161h142c-29 -111 -120 -179 -246 -179c-151 0 -250 108 -250 287c0 174 95 281 248 281c162 0 255 -102 255 -285c0 -12 0 -24 -1 -37h-355c4 -83 41 -126 110 -126c48 0 79 18 97 59zM142 775h126
l96 -181h-69z" />
    <glyph glyph-name="eth" unicode="&#xf0;" horiz-adv-x="609" 
d="M179 254c0 -99 46 -153 125 -153s124 54 124 153c0 98 -45 152 -124 152s-125 -54 -125 -152zM352 490c-25 32 -58 61 -98 88l-141 -70l-28 57l107 53c-28 17 -60 32 -94 48l39 71c52 -16 109 -40 172 -72l141 69l28 -56l-109 -54c138 -98 206 -219 206 -370
c0 -169 -101 -272 -271 -272c-169 0 -269 100 -269 265c0 159 102 262 235 262c28 0 55 -6 82 -19z" />
    <glyph glyph-name="iacute" unicode="&#xed;" horiz-adv-x="272" 
d="M65 0v531h142v-531h-142zM279 775l-153 -181h-69l96 181h126z" />
    <glyph glyph-name="icircumflex" unicode="&#xee;" horiz-adv-x="272" 
d="M65 0v531h142v-531h-142zM-18 594l96 181h116l96 -181h-69l-85 106l-86 -106h-68z" />
    <glyph glyph-name="idieresis" unicode="&#xef;" horiz-adv-x="272" 
d="M65 0v531h142v-531h-142zM-4 623v120h110v-120h-110zM166 623v120h110v-120h-110z" />
    <glyph glyph-name="igrave" unicode="&#xec;" horiz-adv-x="272" 
d="M65 0v531h142v-531h-142zM-7 775h126l96 -181h-69z" />
    <glyph glyph-name="logicalnot" unicode="&#xac;" horiz-adv-x="833" 
d="M124 422h585v-245h-97v149h-488v96z" />
    <glyph glyph-name="minus" unicode="&#x2212;" horiz-adv-x="833" 
d="M124 348h585v-99h-585v99z" />
    <glyph glyph-name="mu" unicode="&#xb5;" horiz-adv-x="610" 
d="M100 533h141l-37 -212c-12 -66 -15 -111 -15 -131c0 -61 27 -90 83 -90c70 0 99 57 121 182l44 251h141l-94 -533h-131l9 57c-27 -50 -59 -73 -105 -73c-44 0 -77 19 -104 59l-44 -257h-140z" />
    <glyph glyph-name="multiply" unicode="&#xd7;" horiz-adv-x="833" 
d="M203 587l220 -220l220 220l69 -68l-220 -221l220 -220l-69 -68l-220 220l-220 -220l-68 68l220 220l-220 221z" />
    <glyph glyph-name="ntilde" unicode="&#xf1;" horiz-adv-x="597" 
d="M62 0v531h139v-63c40 51 94 77 161 77c117 0 175 -61 175 -183v-362h-142v321c0 72 -21 106 -82 106c-66 0 -109 -42 -109 -112v-315h-142zM461 751c-17 -80 -49 -119 -102 -119c-11 0 -23 1 -36 5l-43 13c-11 3 -22 5 -32 5c-22 0 -35 -11 -43 -38h-54
c16 78 47 115 100 115c12 0 26 -2 42 -7l45 -12c9 -3 18 -4 27 -4c21 0 35 14 42 42h54z" />
    <glyph glyph-name="oacute" unicode="&#xf3;" horiz-adv-x="608" 
d="M35 266c0 177 102 284 269 284s269 -107 269 -284s-102 -284 -269 -284s-269 107 -269 284zM179 266c0 -106 46 -165 125 -165s124 59 124 165s-45 164 -124 164s-125 -58 -125 -164zM447 775l-153 -181h-69l96 181h126z" />
    <glyph glyph-name="ocircumflex" unicode="&#xf4;" horiz-adv-x="608" 
d="M35 266c0 177 102 284 269 284s269 -107 269 -284s-102 -284 -269 -284s-269 107 -269 284zM179 266c0 -106 46 -165 125 -165s124 59 124 165s-45 164 -124 164s-125 -58 -125 -164zM150 594l96 181h116l96 -181h-69l-85 106l-86 -106h-68z" />
    <glyph glyph-name="odieresis" unicode="&#xf6;" horiz-adv-x="608" 
d="M35 266c0 177 102 284 269 284s269 -107 269 -284s-102 -284 -269 -284s-269 107 -269 284zM179 266c0 -106 46 -165 125 -165s124 59 124 165s-45 164 -124 164s-125 -58 -125 -164zM164 623v120h110v-120h-110zM334 623v120h110v-120h-110z" />
    <glyph glyph-name="ograve" unicode="&#xf2;" horiz-adv-x="608" 
d="M35 266c0 177 102 284 269 284s269 -107 269 -284s-102 -284 -269 -284s-269 107 -269 284zM179 266c0 -106 46 -165 125 -165s124 59 124 165s-45 164 -124 164s-125 -58 -125 -164zM161 775h126l96 -181h-69z" />
    <glyph glyph-name="onehalf" unicode="&#xbd;" horiz-adv-x="882" 
d="M155 299v268h-105v55h7c74 0 108 17 115 68h70v-391h-87zM188 -20l425 729h80l-426 -729h-79zM538 0c2 77 38 118 113 163c65 38 111 55 111 107c0 34 -24 56 -65 56c-44 0 -70 -25 -70 -71v-4h-81c0 91 57 140 156 140c92 0 150 -48 150 -120c0 -62 -37 -93 -104 -133
c-53 -32 -91 -48 -101 -71h200v-67h-309z" />
    <glyph glyph-name="onequarter" unicode="&#xbc;" horiz-adv-x="882" 
d="M155 299v268h-105v55h7c74 0 108 17 115 68h70v-391h-87zM188 -20l425 729h80l-426 -729h-79zM724 0v85h-186v68l163 227h109v-233h51v-62h-51v-85h-86zM726 145v167l-119 -167h119z" />
    <glyph glyph-name="onesuperior" unicode="&#xb9;" horiz-adv-x="374" 
d="M163 272v287h-111v59h8c77 0 113 19 120 73h74v-419h-91z" />
    <glyph glyph-name="otilde" unicode="&#xf5;" horiz-adv-x="608" 
d="M35 266c0 177 102 284 269 284s269 -107 269 -284s-102 -284 -269 -284s-269 107 -269 284zM179 266c0 -106 46 -165 125 -165s124 59 124 165s-45 164 -124 164s-125 -58 -125 -164zM459 751c-17 -80 -49 -119 -102 -119c-11 0 -23 1 -36 5l-43 13c-11 3 -22 5 -32 5
c-22 0 -35 -11 -43 -38h-54c16 78 47 115 100 115c12 0 26 -2 42 -7l45 -12c9 -3 18 -4 27 -4c21 0 35 14 42 42h54z" />
    <glyph glyph-name="plusminus" unicode="&#xb1;" horiz-adv-x="833" 
d="M367 597h99v-159h243v-97h-243v-159h-99v159h-243v97h243v159zM124 96h585v-97h-585v97z" />
    <glyph glyph-name="registered" unicode="&#xae;" horiz-adv-x="833" 
d="M416 722c100 0 191 -38 261 -109c67 -68 103 -158 103 -255c0 -100 -38 -190 -107 -257c-71 -69 -163 -106 -257 -106c-97 0 -188 39 -258 110c-68 69 -104 159 -104 253c0 65 17 128 53 189c65 110 178 175 309 175zM417 662c-82 0 -154 -29 -211 -86
c-59 -59 -92 -137 -92 -217s30 -155 87 -212c58 -59 135 -92 215 -92c79 0 155 32 215 89c57 55 89 131 89 209c0 87 -29 160 -86 218c-59 60 -133 91 -217 91zM266 567h158c115 0 172 -39 172 -116c0 -53 -33 -93 -88 -107l90 -180h-109l-77 165h-48v-165h-98v403zM364 505
v-117h48c56 0 83 17 83 57c0 42 -29 60 -88 60h-43z" />
    <glyph glyph-name="scaron" unicode="&#x161;" horiz-adv-x="546" 
d="M32 173h142c2 -54 38 -80 111 -80c57 0 87 20 87 53c0 46 -46 43 -140 67c-125 32 -184 70 -184 160c0 107 82 177 218 177c143 0 227 -67 232 -181h-138c-2 45 -35 71 -93 71c-54 0 -80 -16 -80 -49c0 -37 44 -41 145 -65c123 -29 183 -63 183 -159
c0 -120 -86 -185 -249 -185c-148 0 -234 71 -234 185v6zM119 775h68l86 -107l85 107h69l-96 -181h-116z" />
    <glyph glyph-name="thorn" unicode="&#xfe;" horiz-adv-x="613" 
d="M65 -213v932h138v-257c39 59 88 87 155 87c129 0 220 -111 220 -281c0 -175 -94 -286 -218 -286c-68 0 -122 29 -157 84v-279h-138zM437 262c0 108 -42 165 -118 165c-75 0 -116 -56 -116 -165c0 -101 44 -157 119 -157c70 0 115 58 115 157z" />
    <glyph glyph-name="threequarters" unicode="&#xbe;" horiz-adv-x="881" 
d="M18 418h84c1 -44 24 -66 70 -66c44 0 69 21 69 60s-28 59 -84 59c-4 0 -8 -1 -13 -1v55h10c51 0 75 17 75 53c0 31 -23 50 -58 50c-39 0 -61 -21 -61 -59v-3h-84c2 80 55 124 149 124c89 0 143 -42 143 -106c0 -34 -17 -60 -53 -77c46 -18 69 -49 69 -92
c0 -77 -61 -127 -162 -127c-99 0 -154 46 -154 129v1zM188 -20l425 729h80l-426 -729h-79zM724 0v85h-186v68l163 227h109v-233h51v-62h-51v-85h-86zM726 145v167l-119 -167h119z" />
    <glyph glyph-name="threesuperior" unicode="&#xb3;" horiz-adv-x="374" 
d="M18 400h89c1 -48 25 -71 73 -71c46 0 73 23 73 64c0 42 -30 63 -88 63h-14v58h10c54 0 79 18 79 57c0 33 -24 53 -61 53c-40 0 -64 -22 -64 -63v-3h-87c2 85 57 133 155 133c94 0 150 -45 150 -114c0 -36 -18 -64 -55 -82c47 -19 72 -53 72 -98c0 -84 -64 -137 -170 -137
c-103 0 -162 50 -162 138v2z" />
    <glyph glyph-name="trademark" unicode="&#x2122;" horiz-adv-x="833" 
d="M101 714h237v-55h-82v-212h-73v212h-82v55zM392 714h96l62 -162l60 162h96v-267h-66v200l-75 -200h-30l-77 200v-200h-66v267z" />
    <glyph glyph-name="twosuperior" unicode="&#xb2;" horiz-adv-x="374" 
d="M15 272c2 82 39 126 118 175c68 40 116 59 116 114c0 37 -25 60 -68 60c-46 0 -73 -26 -73 -76v-4h-85c0 97 60 150 164 150c96 0 156 -52 156 -129c0 -66 -38 -99 -108 -142c-55 -35 -96 -52 -106 -77h210v-71h-324z" />
    <glyph glyph-name="uacute" unicode="&#xfa;" horiz-adv-x="597" 
d="M535 531v-531h-139v63c-40 -51 -94 -77 -161 -77c-117 0 -175 61 -175 183v362h142v-321c0 -72 21 -105 82 -105c66 0 109 42 109 112v314h142zM442 775l-153 -181h-69l96 181h126z" />
    <glyph glyph-name="ucircumflex" unicode="&#xfb;" horiz-adv-x="597" 
d="M535 531v-531h-139v63c-40 -51 -94 -77 -161 -77c-117 0 -175 61 -175 183v362h142v-321c0 -72 21 -105 82 -105c66 0 109 42 109 112v314h142zM145 594l96 181h116l96 -181h-69l-85 106l-86 -106h-68z" />
    <glyph glyph-name="udieresis" unicode="&#xfc;" horiz-adv-x="597" 
d="M535 531v-531h-139v63c-40 -51 -94 -77 -161 -77c-117 0 -175 61 -175 183v362h142v-321c0 -72 21 -105 82 -105c66 0 109 42 109 112v314h142zM159 623v120h110v-120h-110zM329 623v120h110v-120h-110z" />
    <glyph glyph-name="ugrave" unicode="&#xf9;" horiz-adv-x="597" 
d="M535 531v-531h-139v63c-40 -51 -94 -77 -161 -77c-117 0 -175 61 -175 183v362h142v-321c0 -72 21 -105 82 -105c66 0 109 42 109 112v314h142zM156 775h126l96 -181h-69z" />
    <glyph glyph-name="yacute" unicode="&#xfd;" horiz-adv-x="537" 
d="M83 -213v115c13 -2 25 -2 33 -2c56 0 84 26 84 79c0 4 -1 10 -3 15l-191 537h156l112 -383l109 383h149l-218 -626c-31 -90 -69 -122 -171 -122c-15 0 -35 1 -60 4zM412 775l-153 -181h-69l96 181h126z" />
    <glyph glyph-name="ydieresis" unicode="&#xff;" horiz-adv-x="537" 
d="M83 -213v115c13 -2 25 -2 33 -2c56 0 84 26 84 79c0 4 -1 10 -3 15l-191 537h156l112 -383l109 383h149l-218 -626c-31 -90 -69 -122 -171 -122c-15 0 -35 1 -60 4zM129 623v120h110v-120h-110zM299 623v120h110v-120h-110z" />
    <glyph glyph-name="zcaron" unicode="&#x17e;" horiz-adv-x="506" 
d="M17 0v109l291 309h-274v113h444v-116l-287 -297h297v-118h-471zM99 775h68l86 -107l85 107h69l-96 -181h-116z" />
    </font>
</defs>
</svg>
